<svg xmlns="http://www.w3.org/2000/svg"  viewBox="0 0 72 72" width="64px" height="64px"><path d="M 29.5 8 L 27.837891 15.472656 C 19.349653 17.372684 13 24.938855 13 34 L 13 60 L 24 60 L 24 57 C 24 55.343 25.343 54 27 54 L 27 60 L 32 60 L 32 54 L 35 54 L 35 60 L 40 60 L 40 54 L 43 54 L 43 60 L 48 60 L 48 54 C 49.657 54 51 52.657 51 51 L 51 50 C 55.697 48.041 59 43.407 59 38 C 59 31.817 54.679484 26.652938 48.896484 25.335938 C 46.250743 20.188828 41.330082 16.41021 35.460938 15.326172 L 33.832031 8 L 29.5 8 z M 31 31 C 33.551 31 35.777 32.369203 37 34.408203 C 38.223 32.369203 40.449 31 43 31 C 46.866 31 50 34.134 50 38 C 50 41.866 46.866 45 43 45 C 40.449 45 38.223 43.630797 37 41.591797 C 35.777 43.630797 33.551 45 31 45 C 27.134 45 24 41.866 24 38 C 24 34.134 27.134 31 31 31 z M 29 35 C 27.343 35 26 36.343 26 38 C 26 39.657 27.343 41 29 41 C 30.657 41 32 39.657 32 38 C 32 36.343 30.657 35 29 35 z M 42 35 C 40.343 35 39 36.343 39 38 C 39 39.657 40.343 41 42 41 C 43.657 41 45 39.657 45 38 C 45 36.343 43.657 35 42 35 z"/></svg>